<?xml version="1.0" encoding="UTF-8"?>
<svg width="24px" height="24px" viewBox="0 0 24 24" version="1.1" xmlns="http://www.w3.org/2000/svg">
    <g stroke="none" stroke-width="1" fill="none" fill-rule="evenodd">
        <path d="M11,14.9996 L11,21 C11,21.5523 11.4477,22 12,22 C12.5523,22 13,21.5523 13,21 L13,14.9996 L16.2929,14.9996 C16.9229,14.9996 17.2929,14.2236 16.8536,13.7843 L12.5607,9.49142 C12.2501,9.1808 11.7499,9.1808 11.4393,9.49142 L7.14645,13.7843 C6.70711,14.2236 7.07714,14.9996 7.70711,14.9996 L11,14.9996 Z" fill="#6C757D"/>
        <path d="M5,5 L19,5 C20.1046,5 21,5.89543 21,7 L21,12 C21,12.5523 20.5523,13 20,13 C19.4477,13 19,12.5523 19,12 L19,7 L5,7 L5,12 C5,12.5523 4.55228,13 4,13 C3.44772,13 3,12.5523 3,12 L3,7 C3,5.89543 3.89543,5 5,5 Z" fill="#6C757D"/>
    </g>
</svg> 